<?xml version="1.0" encoding="UTF-8"?>
<svg version="1.1" xmlns="http://www.w3.org/2000/svg" width="512" height="512">
<path d="M0 0 C2.77293178 -0.00323184 5.54583725 -0.01241339 8.3187561 -0.02124023 C15.03121698 -0.03891092 21.7434977 -0.03523708 28.45596528 -0.02358967 C33.91738488 -0.01451009 39.37875444 -0.01335076 44.84017944 -0.01768494 C45.62117042 -0.01829787 46.40216139 -0.0189108 47.20681876 -0.01954231 C48.79400326 -0.02082137 50.38118775 -0.02211823 51.96837223 -0.02343267 C66.80800368 -0.03480492 81.64753586 -0.02177769 96.48715103 -0.00023121 C109.18581961 0.01763673 121.88434187 0.01453167 134.58300781 -0.00390625 C149.37405074 -0.02537254 164.16500694 -0.0337066 178.95606327 -0.0214572 C180.53700319 -0.02018317 182.11794311 -0.01892568 183.69888306 -0.01768494 C184.47648348 -0.01706783 185.25408389 -0.01645073 186.05524796 -0.01581493 C191.50221593 -0.01237925 196.9491283 -0.01815164 202.39608765 -0.02760315 C209.045446 -0.03888882 215.6946158 -0.03564656 222.34395289 -0.01448017 C225.72855014 -0.00405688 229.11257838 -0.00189476 232.49721146 -0.01307678 C263.33129357 -0.10550097 288.70598167 6.2885787 311.26953125 28.51757812 C330.30598708 47.52225356 338.74604459 71.68384078 338.81164551 98.11346436 C338.80387259 100.05871748 338.79568019 102.00396897 338.78710938 103.94921875 C338.79254294 106.04547611 338.79967247 108.14172964 338.80834961 110.23797607 C338.82643003 115.87798676 338.81958156 121.51770155 338.80683327 127.15771675 C338.79663653 133.0818366 338.80611635 139.00593277 338.81237793 144.93005371 C338.81963046 154.86552438 338.81012494 164.80087563 338.79101562 174.73632812 C338.76920357 186.20924863 338.77633941 197.68188523 338.79832125 209.15479898 C338.81648639 219.03293231 338.81902953 228.91098033 338.80856657 238.78912497 C338.80234398 244.67736054 338.80146308 250.56546267 338.81471252 256.45368958 C338.82628827 261.98282404 338.81821353 267.51159253 338.7951355 273.04068756 C338.78985973 275.06551252 338.79134272 277.09036845 338.80018616 279.11518097 C338.81116882 281.88567089 338.79734598 284.65499854 338.77746582 287.42541504 C338.79085015 288.61769203 338.79085015 288.61769203 338.80450487 289.83405542 C338.68842634 298.21230753 335.04984625 306.41613451 329.26953125 312.51757812 C322.42753872 318.01651286 316.18282127 320.76449785 307.30943584 320.77484703 C306.29007159 320.78010614 306.29007159 320.78010614 305.25011411 320.7854715 C302.97433382 320.79477088 300.69881025 320.78986604 298.42301941 320.78500366 C296.77433305 320.78874066 295.12564846 320.79334238 293.47696668 320.79873431 C288.94724846 320.81097356 284.41760404 320.81070275 279.88787305 320.80834556 C275.00226856 320.80793763 270.11668781 320.81897425 265.23109436 320.82846069 C255.65965374 320.8450766 246.08823775 320.8505705 236.51678392 320.85168545 C228.7371563 320.85263562 220.95753681 320.85674434 213.17791176 320.8630867 C191.12393613 320.8807005 169.06997997 320.88992532 147.01599725 320.88842575 C145.2324353 320.88830588 145.2324353 320.88830588 143.4128418 320.88818359 C142.22234969 320.88810183 141.03185759 320.88802007 139.80528996 320.88793583 C120.50913649 320.88712283 101.21306106 320.90626376 81.91693016 320.93446033 C62.10644379 320.96318022 42.29599548 320.97700112 22.48548776 320.97527277 C11.3623181 320.97460858 0.23923025 320.98011392 -10.88392067 321.00162888 C-20.35396746 321.01982885 -29.82389533 321.0241977 -39.29395203 321.01061003 C-44.12545269 321.00407451 -48.95672515 321.00398432 -53.78820419 321.02131653 C-58.2129368 321.03702632 -62.63725986 321.03420505 -67.06198236 321.01674826 C-68.66087766 321.01367376 -70.25980337 321.01732773 -71.85866282 321.02846842 C-80.20242422 321.08274675 -87.42221628 320.96995582 -94.73046875 316.51757812 C-95.3809104 316.13931173 -96.03135205 315.76104533 -96.70150405 315.37131631 C-103.58288607 311.19694689 -107.63096823 304.1222241 -109.73046875 296.51757812 C-110.01132942 293.60518326 -110.009165 290.71043883 -109.99789429 287.78617859 C-110.0024254 286.91916645 -110.00695651 286.05215432 -110.01162493 285.15886909 C-110.02426333 282.25974819 -110.02264887 279.36081529 -110.02099609 276.46166992 C-110.02698204 274.38001769 -110.03378774 272.29836768 -110.04135132 270.21672058 C-110.05902044 264.5632103 -110.06370733 258.90976057 -110.06498289 253.25622535 C-110.06640553 249.71858388 -110.07067748 246.18095774 -110.07597733 242.64332008 C-110.09448678 230.28490856 -110.10264756 217.92654016 -110.10107422 205.56811523 C-110.0998754 194.07799241 -110.12092436 182.58805821 -110.15256155 171.09798306 C-110.17879892 161.21401743 -110.18943826 151.33011308 -110.1881634 141.44611293 C-110.18765558 135.55184955 -110.19323765 129.65775348 -110.2145195 123.76352501 C-110.23402551 118.20909827 -110.23394245 112.65499618 -110.21948624 107.10055733 C-110.21741168 105.07425329 -110.22201715 103.04792828 -110.23420715 101.02165985 C-110.3947506 72.45925175 -102.10070067 48.19438544 -81.73046875 27.51757812 C-58.5313026 4.27961738 -31.32306783 -0.10348396 0 0 Z " fill="#C67C58" transform="translate(141.73046875,95.482421875)"/>
<path d="M0 0 C52.8 0 105.6 0 160 0 C160 42.24 160 84.48 160 128 C149.11 128 138.22 128 127 128 C129.31 131.3 131.62 134.6 134 138 C134.73362018 144.06903965 135.05632058 148.83743935 131.51171875 154.0859375 C128.66771779 157.68686895 125.73862283 161.21237969 122.765625 164.70703125 C119.98642144 167.98896098 117.32884149 171.35673326 114.6875 174.75 C109.02293791 182.00629082 103.25475785 189.17468135 97.40820312 196.28515625 C96.19855044 197.75821459 94.99691474 199.2378499 93.796875 200.71875 C90.16444283 205.07766861 87.72794687 207.56958528 81.90234375 208.2421875 C76.36162681 208.55668562 73.29434768 207.74613309 69 204 C63.67480178 198.61563291 59.06413053 192.61759716 54.42138672 186.64916992 C50.82345329 182.02545056 47.14618437 177.4726974 43.4375 172.9375 C39.32445297 167.89313943 35.24289513 162.8277031 31.25 157.6875 C30.45078125 156.66011719 29.6515625 155.63273438 28.828125 154.57421875 C25.01189704 149.20051313 25.46099977 144.40062772 26 138 C28.31 134.7 30.62 131.4 33 128 C22.11 128 11.22 128 0 128 C0 85.76 0 43.52 0 0 Z " fill="#C67C58" transform="translate(176,96)"/>
<path d="M0 0 C88.95317726 0 88.95317726 0 119.33984375 30.3359375 C152.76429924 65.64587509 144 113.75934489 144 160 C85.59 160 27.18 160 -33 160 C-31 156 -31 156 -28.875 152.9375 C-26.18073329 148.18171103 -25.95063209 143.3076725 -27 138 C-28.36039198 135.57016693 -29.8296536 133.62716809 -31.6875 131.55859375 C-33 130 -33 130 -33 128 C-22.11 128 -11.22 128 0 128 C0 85.76 0 43.52 0 0 Z " fill="#C77B57" transform="translate(336,96)"/>
<path d="M0 0 C0 42.24 0 84.48 0 128 C10.89 128 21.78 128 33 128 C31 132 31 132 28.875 134.5625 C26.23401243 139.40431055 26.1983418 143.59273685 27 149 C28.05900147 151.69204112 29.32682171 153.58865481 31 156 C31.66 157.32 32.32 158.64 33 160 C-25.41 160 -83.82 160 -144 160 C-144 55.04682274 -144 55.04682274 -113.6640625 24.66015625 C-82.10008493 -5.21836621 -42.27579086 0 0 0 Z " fill="#C77B58" transform="translate(176,96)"/>
<path d="M0 0 C10.56 0 21.12 0 32 0 C32 42.24 32 84.48 32 128 C68.96 128 105.92 128 144 128 C144 138.56 144 149.12 144 160 C85.59 160 27.18 160 -33 160 C-31 156 -31 156 -28.875 152.9375 C-26.18073329 148.18171103 -25.95063209 143.3076725 -27 138 C-28.36039198 135.57016693 -29.8296536 133.62716809 -31.6875 131.55859375 C-33 130 -33 130 -33 128 C-22.11 128 -11.22 128 0 128 C0 85.76 0 43.52 0 0 Z " fill="#5C3320" transform="translate(336,96)"/>
<path d="M0 0 C10.56 0 21.12 0 32 0 C32 42.24 32 84.48 32 128 C42.89 128 53.78 128 65 128 C63 132 63 132 60.875 134.5625 C58.23401243 139.40431055 58.1983418 143.59273685 59 149 C60.05900147 151.69204112 61.32682171 153.58865481 63 156 C63.66 157.32 64.32 158.64 65 160 C6.59 160 -51.82 160 -112 160 C-112 149.44 -112 138.88 -112 128 C-75.04 128 -38.08 128 0 128 C0 85.76 0 43.52 0 0 Z " fill="#5C3320" transform="translate(144,96)"/>
<path d="M0 0 C7.68645994 5.25831046 13.23571108 14.18762118 18.91015625 21.5 C22.02162429 25.49746668 25.22237137 29.41916329 28.4296875 33.33984375 C46.922923 55.99515541 46.922923 55.99515541 45.8671875 67.27734375 C43.42952876 73.3714906 38.85510496 78.02122272 34.6328125 82.984375 C31.85360894 86.26630473 29.19602899 89.63407701 26.5546875 93.02734375 C20.89012541 100.28363457 15.12194535 107.4520251 9.27539062 114.5625 C8.06573794 116.03555834 6.86410224 117.51519365 5.6640625 118.99609375 C2.03163033 123.35501236 -0.40486563 125.84692903 -6.23046875 126.51953125 C-11.77118569 126.83402937 -14.83846482 126.02347684 -19.1328125 122.27734375 C-24.45801072 116.89297666 -29.06868197 110.89494091 -33.71142578 104.92651367 C-37.30935921 100.30279431 -40.98662813 95.75004115 -44.6953125 91.21484375 C-48.80835953 86.17048318 -52.88991737 81.10504685 -56.8828125 75.96484375 C-57.68203125 74.93746094 -58.48125 73.91007812 -59.3046875 72.8515625 C-62.37984351 68.52137487 -62.7326658 64.47831509 -62.64453125 59.28515625 C-61.77063963 54.1485414 -58.84899464 50.82191597 -55.53271484 46.92333984 C-53.95420121 45.06733376 -52.41206792 43.18415556 -50.87109375 41.296875 C-48.48062526 38.37537649 -46.07678755 35.46563729 -43.6640625 32.5625 C-40.48550597 28.72432419 -37.3849465 24.83179677 -34.3203125 20.90234375 C-30.9849226 16.63705078 -27.64780116 12.37447131 -24.2578125 8.15234375 C-23.57976562 7.30414063 -22.90171875 6.4559375 -22.203125 5.58203125 C-16.05858099 -1.25812152 -8.87202008 -4.27828524 0 0 Z " fill="#B8F2F7" transform="translate(264.1328125,177.72265625)"/>
</svg>
